<mxfile host="app.diagrams.net" modified="2022-09-27T02:09:28.998Z" agent="5.0 (Macintosh; Intel Mac OS X 10_15_7) AppleWebKit/537.36 (KHTML, like Gecko) Chrome/105.0.0.0 Safari/537.36" etag="U5NBste_Pfle82CnvnTy" version="19.0.2" type="github">
  <diagram id="mW7sXFlhsNH1YCDSHsh7" name="第 1 页">
    <mxGraphModel dx="1101" dy="455" grid="0" gridSize="10" guides="1" tooltips="1" connect="1" arrows="1" fold="1" page="0" pageScale="1" pageWidth="827" pageHeight="1169" math="0" shadow="0">
      <root>
        <mxCell id="0" />
        <mxCell id="1" parent="0" />
        <mxCell id="p1or3wSUR8h3AQl78pqS-46" value="" style="rounded=0;whiteSpace=wrap;html=1;" vertex="1" parent="1">
          <mxGeometry x="370" y="807" width="122" height="476" as="geometry" />
        </mxCell>
        <mxCell id="p1or3wSUR8h3AQl78pqS-45" value="" style="rounded=0;whiteSpace=wrap;html=1;" vertex="1" parent="1">
          <mxGeometry x="85" y="807" width="114" height="476" as="geometry" />
        </mxCell>
        <mxCell id="p1or3wSUR8h3AQl78pqS-15" value="" style="rounded=0;whiteSpace=wrap;html=1;" vertex="1" parent="1">
          <mxGeometry x="40" y="184" width="671" height="501" as="geometry" />
        </mxCell>
        <mxCell id="p1or3wSUR8h3AQl78pqS-10" style="edgeStyle=orthogonalEdgeStyle;rounded=0;orthogonalLoop=1;jettySize=auto;html=1;" edge="1" parent="1" source="p1or3wSUR8h3AQl78pqS-2" target="p1or3wSUR8h3AQl78pqS-3">
          <mxGeometry relative="1" as="geometry" />
        </mxCell>
        <mxCell id="p1or3wSUR8h3AQl78pqS-2" value="占用/停用会议室" style="rounded=1;whiteSpace=wrap;html=1;" vertex="1" parent="1">
          <mxGeometry x="112" y="241" width="120" height="60" as="geometry" />
        </mxCell>
        <mxCell id="p1or3wSUR8h3AQl78pqS-23" style="edgeStyle=orthogonalEdgeStyle;rounded=0;orthogonalLoop=1;jettySize=auto;html=1;" edge="1" parent="1" source="p1or3wSUR8h3AQl78pqS-3" target="p1or3wSUR8h3AQl78pqS-22">
          <mxGeometry relative="1" as="geometry" />
        </mxCell>
        <mxCell id="p1or3wSUR8h3AQl78pqS-3" value="查询将取消的会议" style="rounded=1;whiteSpace=wrap;html=1;" vertex="1" parent="1">
          <mxGeometry x="112" y="352" width="120" height="60" as="geometry" />
        </mxCell>
        <mxCell id="p1or3wSUR8h3AQl78pqS-12" style="edgeStyle=orthogonalEdgeStyle;rounded=0;orthogonalLoop=1;jettySize=auto;html=1;" edge="1" parent="1" source="p1or3wSUR8h3AQl78pqS-4" target="p1or3wSUR8h3AQl78pqS-5">
          <mxGeometry relative="1" as="geometry" />
        </mxCell>
        <mxCell id="p1or3wSUR8h3AQl78pqS-4" value="计算出会议室评分表&lt;br&gt;（关键步骤）" style="rounded=1;whiteSpace=wrap;html=1;" vertex="1" parent="1">
          <mxGeometry x="326" y="471" width="120" height="60" as="geometry" />
        </mxCell>
        <mxCell id="p1or3wSUR8h3AQl78pqS-14" style="edgeStyle=orthogonalEdgeStyle;rounded=0;orthogonalLoop=1;jettySize=auto;html=1;" edge="1" parent="1" source="p1or3wSUR8h3AQl78pqS-5" target="p1or3wSUR8h3AQl78pqS-7">
          <mxGeometry relative="1" as="geometry">
            <mxPoint x="615" y="614" as="targetPoint" />
            <Array as="points">
              <mxPoint x="612" y="609" />
            </Array>
          </mxGeometry>
        </mxCell>
        <mxCell id="p1or3wSUR8h3AQl78pqS-5" value="会议-会议室匹配调度&lt;br&gt;(关键步骤)" style="rounded=1;whiteSpace=wrap;html=1;" vertex="1" parent="1">
          <mxGeometry x="546" y="471" width="120" height="60" as="geometry" />
        </mxCell>
        <mxCell id="p1or3wSUR8h3AQl78pqS-7" value="结束" style="ellipse;whiteSpace=wrap;html=1;aspect=fixed;" vertex="1" parent="1">
          <mxGeometry x="130" y="564" width="80" height="80" as="geometry" />
        </mxCell>
        <mxCell id="p1or3wSUR8h3AQl78pqS-9" style="edgeStyle=orthogonalEdgeStyle;rounded=0;orthogonalLoop=1;jettySize=auto;html=1;" edge="1" parent="1" source="p1or3wSUR8h3AQl78pqS-8" target="p1or3wSUR8h3AQl78pqS-2">
          <mxGeometry relative="1" as="geometry" />
        </mxCell>
        <mxCell id="p1or3wSUR8h3AQl78pqS-8" value="会议室管理员" style="shape=umlActor;verticalLabelPosition=bottom;verticalAlign=top;html=1;outlineConnect=0;" vertex="1" parent="1">
          <mxGeometry x="-58" y="228" width="46" height="86" as="geometry" />
        </mxCell>
        <mxCell id="p1or3wSUR8h3AQl78pqS-16" value="" style="endArrow=none;html=1;rounded=0;exitX=0;exitY=0.089;exitDx=0;exitDy=0;exitPerimeter=0;entryX=1.001;entryY=0.084;entryDx=0;entryDy=0;entryPerimeter=0;" edge="1" parent="1" source="p1or3wSUR8h3AQl78pqS-15" target="p1or3wSUR8h3AQl78pqS-15">
          <mxGeometry width="50" height="50" relative="1" as="geometry">
            <mxPoint x="119" y="251" as="sourcePoint" />
            <mxPoint x="169" y="201" as="targetPoint" />
          </mxGeometry>
        </mxCell>
        <mxCell id="p1or3wSUR8h3AQl78pqS-17" value="" style="endArrow=none;html=1;rounded=0;entryX=0.371;entryY=-0.001;entryDx=0;entryDy=0;entryPerimeter=0;exitX=0.374;exitY=1;exitDx=0;exitDy=0;exitPerimeter=0;" edge="1" parent="1" source="p1or3wSUR8h3AQl78pqS-15" target="p1or3wSUR8h3AQl78pqS-15">
          <mxGeometry width="50" height="50" relative="1" as="geometry">
            <mxPoint x="272" y="319" as="sourcePoint" />
            <mxPoint x="322" y="269" as="targetPoint" />
          </mxGeometry>
        </mxCell>
        <mxCell id="p1or3wSUR8h3AQl78pqS-18" value="" style="endArrow=none;html=1;rounded=0;entryX=0.371;entryY=-0.001;entryDx=0;entryDy=0;entryPerimeter=0;exitX=0.694;exitY=0.998;exitDx=0;exitDy=0;exitPerimeter=0;" edge="1" parent="1" source="p1or3wSUR8h3AQl78pqS-15">
          <mxGeometry width="50" height="50" relative="1" as="geometry">
            <mxPoint x="506" y="592" as="sourcePoint" />
            <mxPoint x="504.00100000000003" y="184.00300000000001" as="targetPoint" />
          </mxGeometry>
        </mxCell>
        <mxCell id="p1or3wSUR8h3AQl78pqS-19" value="会议室系统" style="text;html=1;strokeColor=none;fillColor=none;align=center;verticalAlign=middle;whiteSpace=wrap;rounded=0;" vertex="1" parent="1">
          <mxGeometry x="98" y="188" width="125" height="30" as="geometry" />
        </mxCell>
        <mxCell id="p1or3wSUR8h3AQl78pqS-20" value="评分评比法计算处理器" style="text;html=1;strokeColor=none;fillColor=none;align=center;verticalAlign=middle;whiteSpace=wrap;rounded=0;" vertex="1" parent="1">
          <mxGeometry x="331" y="188" width="125" height="30" as="geometry" />
        </mxCell>
        <mxCell id="p1or3wSUR8h3AQl78pqS-21" value="KM匹配器" style="text;html=1;strokeColor=none;fillColor=none;align=center;verticalAlign=middle;whiteSpace=wrap;rounded=0;" vertex="1" parent="1">
          <mxGeometry x="546" y="188" width="125" height="30" as="geometry" />
        </mxCell>
        <mxCell id="p1or3wSUR8h3AQl78pqS-24" style="edgeStyle=orthogonalEdgeStyle;rounded=0;orthogonalLoop=1;jettySize=auto;html=1;" edge="1" parent="1" source="p1or3wSUR8h3AQl78pqS-22" target="p1or3wSUR8h3AQl78pqS-4">
          <mxGeometry relative="1" as="geometry" />
        </mxCell>
        <mxCell id="p1or3wSUR8h3AQl78pqS-22" value="查询空闲的会议室" style="rounded=1;whiteSpace=wrap;html=1;" vertex="1" parent="1">
          <mxGeometry x="112" y="471" width="120" height="60" as="geometry" />
        </mxCell>
        <mxCell id="p1or3wSUR8h3AQl78pqS-32" style="rounded=0;orthogonalLoop=1;jettySize=auto;html=1;entryX=0;entryY=0.5;entryDx=0;entryDy=0;endArrow=none;endFill=0;exitX=1;exitY=0.5;exitDx=0;exitDy=0;" edge="1" parent="1" source="p1or3wSUR8h3AQl78pqS-25" target="p1or3wSUR8h3AQl78pqS-29">
          <mxGeometry relative="1" as="geometry" />
        </mxCell>
        <mxCell id="p1or3wSUR8h3AQl78pqS-40" value="134" style="edgeLabel;html=1;align=center;verticalAlign=middle;resizable=0;points=[];" vertex="1" connectable="0" parent="p1or3wSUR8h3AQl78pqS-32">
          <mxGeometry x="0.04" y="3" relative="1" as="geometry">
            <mxPoint as="offset" />
          </mxGeometry>
        </mxCell>
        <mxCell id="p1or3wSUR8h3AQl78pqS-34" style="edgeStyle=none;rounded=0;orthogonalLoop=1;jettySize=auto;html=1;endArrow=none;endFill=0;" edge="1" parent="1" source="p1or3wSUR8h3AQl78pqS-25" target="p1or3wSUR8h3AQl78pqS-28">
          <mxGeometry relative="1" as="geometry" />
        </mxCell>
        <mxCell id="p1or3wSUR8h3AQl78pqS-39" value="170" style="edgeLabel;html=1;align=center;verticalAlign=middle;resizable=0;points=[];" vertex="1" connectable="0" parent="p1or3wSUR8h3AQl78pqS-34">
          <mxGeometry x="-0.0897" y="2" relative="1" as="geometry">
            <mxPoint as="offset" />
          </mxGeometry>
        </mxCell>
        <mxCell id="p1or3wSUR8h3AQl78pqS-35" style="edgeStyle=none;rounded=0;orthogonalLoop=1;jettySize=auto;html=1;entryX=0;entryY=0.5;entryDx=0;entryDy=0;endArrow=none;endFill=0;exitX=1;exitY=0.5;exitDx=0;exitDy=0;" edge="1" parent="1" source="p1or3wSUR8h3AQl78pqS-25" target="p1or3wSUR8h3AQl78pqS-30">
          <mxGeometry relative="1" as="geometry" />
        </mxCell>
        <mxCell id="p1or3wSUR8h3AQl78pqS-41" value="100" style="edgeLabel;html=1;align=center;verticalAlign=middle;resizable=0;points=[];" vertex="1" connectable="0" parent="p1or3wSUR8h3AQl78pqS-35">
          <mxGeometry x="-0.2392" y="2" relative="1" as="geometry">
            <mxPoint as="offset" />
          </mxGeometry>
        </mxCell>
        <mxCell id="p1or3wSUR8h3AQl78pqS-25" value="X1" style="ellipse;whiteSpace=wrap;html=1;aspect=fixed;" vertex="1" parent="1">
          <mxGeometry x="103" y="854" width="80" height="80" as="geometry" />
        </mxCell>
        <mxCell id="p1or3wSUR8h3AQl78pqS-36" style="edgeStyle=none;rounded=0;orthogonalLoop=1;jettySize=auto;html=1;entryX=0;entryY=0.5;entryDx=0;entryDy=0;endArrow=none;endFill=0;" edge="1" parent="1" source="p1or3wSUR8h3AQl78pqS-26" target="p1or3wSUR8h3AQl78pqS-29">
          <mxGeometry relative="1" as="geometry" />
        </mxCell>
        <mxCell id="p1or3wSUR8h3AQl78pqS-42" value="160" style="edgeLabel;html=1;align=center;verticalAlign=middle;resizable=0;points=[];" vertex="1" connectable="0" parent="p1or3wSUR8h3AQl78pqS-36">
          <mxGeometry x="-0.5343" y="5" relative="1" as="geometry">
            <mxPoint as="offset" />
          </mxGeometry>
        </mxCell>
        <mxCell id="p1or3wSUR8h3AQl78pqS-37" style="edgeStyle=none;rounded=0;orthogonalLoop=1;jettySize=auto;html=1;entryX=0;entryY=0.5;entryDx=0;entryDy=0;endArrow=none;endFill=0;" edge="1" parent="1" source="p1or3wSUR8h3AQl78pqS-26" target="p1or3wSUR8h3AQl78pqS-30">
          <mxGeometry relative="1" as="geometry" />
        </mxCell>
        <mxCell id="p1or3wSUR8h3AQl78pqS-43" value="150" style="edgeLabel;html=1;align=center;verticalAlign=middle;resizable=0;points=[];" vertex="1" connectable="0" parent="p1or3wSUR8h3AQl78pqS-37">
          <mxGeometry x="-0.5506" y="5" relative="1" as="geometry">
            <mxPoint as="offset" />
          </mxGeometry>
        </mxCell>
        <mxCell id="p1or3wSUR8h3AQl78pqS-26" value="X2" style="ellipse;whiteSpace=wrap;html=1;aspect=fixed;" vertex="1" parent="1">
          <mxGeometry x="103" y="1005" width="80" height="80" as="geometry" />
        </mxCell>
        <mxCell id="p1or3wSUR8h3AQl78pqS-38" style="edgeStyle=none;rounded=0;orthogonalLoop=1;jettySize=auto;html=1;entryX=0;entryY=0.5;entryDx=0;entryDy=0;endArrow=none;endFill=0;" edge="1" parent="1" source="p1or3wSUR8h3AQl78pqS-27" target="p1or3wSUR8h3AQl78pqS-29">
          <mxGeometry relative="1" as="geometry" />
        </mxCell>
        <mxCell id="p1or3wSUR8h3AQl78pqS-44" value="170" style="edgeLabel;html=1;align=center;verticalAlign=middle;resizable=0;points=[];" vertex="1" connectable="0" parent="p1or3wSUR8h3AQl78pqS-38">
          <mxGeometry x="-0.5711" y="3" relative="1" as="geometry">
            <mxPoint as="offset" />
          </mxGeometry>
        </mxCell>
        <mxCell id="p1or3wSUR8h3AQl78pqS-27" value="X3" style="ellipse;whiteSpace=wrap;html=1;aspect=fixed;" vertex="1" parent="1">
          <mxGeometry x="103" y="1159" width="80" height="80" as="geometry" />
        </mxCell>
        <mxCell id="p1or3wSUR8h3AQl78pqS-28" value="Y1" style="ellipse;whiteSpace=wrap;html=1;aspect=fixed;" vertex="1" parent="1">
          <mxGeometry x="380" y="854" width="80" height="80" as="geometry" />
        </mxCell>
        <mxCell id="p1or3wSUR8h3AQl78pqS-29" value="Y2" style="ellipse;whiteSpace=wrap;html=1;aspect=fixed;" vertex="1" parent="1">
          <mxGeometry x="382" y="1005" width="80" height="80" as="geometry" />
        </mxCell>
        <mxCell id="p1or3wSUR8h3AQl78pqS-30" value="Y3" style="ellipse;whiteSpace=wrap;html=1;aspect=fixed;" vertex="1" parent="1">
          <mxGeometry x="380" y="1159" width="80" height="80" as="geometry" />
        </mxCell>
        <mxCell id="p1or3wSUR8h3AQl78pqS-47" value="待调度会议" style="text;html=1;strokeColor=none;fillColor=none;align=center;verticalAlign=middle;whiteSpace=wrap;rounded=0;" vertex="1" parent="1">
          <mxGeometry x="112" y="816" width="69" height="30" as="geometry" />
        </mxCell>
        <mxCell id="p1or3wSUR8h3AQl78pqS-48" value="可被匹配的空闲会议室" style="text;html=1;strokeColor=none;fillColor=none;align=center;verticalAlign=middle;whiteSpace=wrap;rounded=0;" vertex="1" parent="1">
          <mxGeometry x="393" y="816" width="69" height="30" as="geometry" />
        </mxCell>
        <mxCell id="p1or3wSUR8h3AQl78pqS-49" value="" style="rounded=0;whiteSpace=wrap;html=1;" vertex="1" parent="1">
          <mxGeometry x="1068" y="827" width="122" height="476" as="geometry" />
        </mxCell>
        <mxCell id="p1or3wSUR8h3AQl78pqS-50" value="" style="rounded=0;whiteSpace=wrap;html=1;" vertex="1" parent="1">
          <mxGeometry x="783" y="827" width="114" height="476" as="geometry" />
        </mxCell>
        <mxCell id="p1or3wSUR8h3AQl78pqS-51" style="rounded=0;orthogonalLoop=1;jettySize=auto;html=1;entryX=0;entryY=0.5;entryDx=0;entryDy=0;endArrow=none;endFill=0;exitX=1;exitY=0.5;exitDx=0;exitDy=0;" edge="1" parent="1" source="p1or3wSUR8h3AQl78pqS-57" target="p1or3wSUR8h3AQl78pqS-67">
          <mxGeometry relative="1" as="geometry" />
        </mxCell>
        <mxCell id="p1or3wSUR8h3AQl78pqS-53" style="edgeStyle=none;rounded=0;orthogonalLoop=1;jettySize=auto;html=1;endArrow=none;endFill=0;" edge="1" parent="1" source="p1or3wSUR8h3AQl78pqS-57" target="p1or3wSUR8h3AQl78pqS-66">
          <mxGeometry relative="1" as="geometry" />
        </mxCell>
        <mxCell id="p1or3wSUR8h3AQl78pqS-73" style="edgeStyle=none;rounded=0;orthogonalLoop=1;jettySize=auto;html=1;entryX=0;entryY=0.5;entryDx=0;entryDy=0;endArrow=none;endFill=0;" edge="1" parent="1" source="p1or3wSUR8h3AQl78pqS-57" target="p1or3wSUR8h3AQl78pqS-71">
          <mxGeometry relative="1" as="geometry" />
        </mxCell>
        <mxCell id="p1or3wSUR8h3AQl78pqS-57" value="X1" style="ellipse;whiteSpace=wrap;html=1;aspect=fixed;" vertex="1" parent="1">
          <mxGeometry x="801" y="874" width="80" height="80" as="geometry" />
        </mxCell>
        <mxCell id="p1or3wSUR8h3AQl78pqS-58" style="edgeStyle=none;rounded=0;orthogonalLoop=1;jettySize=auto;html=1;entryX=0;entryY=0.5;entryDx=0;entryDy=0;endArrow=none;endFill=0;" edge="1" parent="1" source="p1or3wSUR8h3AQl78pqS-62" target="p1or3wSUR8h3AQl78pqS-67">
          <mxGeometry relative="1" as="geometry" />
        </mxCell>
        <mxCell id="p1or3wSUR8h3AQl78pqS-72" style="edgeStyle=none;rounded=0;orthogonalLoop=1;jettySize=auto;html=1;entryX=0;entryY=0.5;entryDx=0;entryDy=0;endArrow=none;endFill=0;" edge="1" parent="1" source="p1or3wSUR8h3AQl78pqS-62" target="p1or3wSUR8h3AQl78pqS-71">
          <mxGeometry relative="1" as="geometry" />
        </mxCell>
        <mxCell id="p1or3wSUR8h3AQl78pqS-62" value="X2" style="ellipse;whiteSpace=wrap;html=1;aspect=fixed;" vertex="1" parent="1">
          <mxGeometry x="801" y="1025" width="80" height="80" as="geometry" />
        </mxCell>
        <mxCell id="p1or3wSUR8h3AQl78pqS-63" style="edgeStyle=none;rounded=0;orthogonalLoop=1;jettySize=auto;html=1;entryX=0;entryY=0.5;entryDx=0;entryDy=0;endArrow=none;endFill=0;" edge="1" parent="1" source="p1or3wSUR8h3AQl78pqS-65" target="p1or3wSUR8h3AQl78pqS-67">
          <mxGeometry relative="1" as="geometry" />
        </mxCell>
        <mxCell id="p1or3wSUR8h3AQl78pqS-65" value="X3" style="ellipse;whiteSpace=wrap;html=1;aspect=fixed;" vertex="1" parent="1">
          <mxGeometry x="801" y="1179" width="80" height="80" as="geometry" />
        </mxCell>
        <mxCell id="p1or3wSUR8h3AQl78pqS-66" value="Y1" style="ellipse;whiteSpace=wrap;html=1;aspect=fixed;" vertex="1" parent="1">
          <mxGeometry x="1089" y="874" width="80" height="80" as="geometry" />
        </mxCell>
        <mxCell id="p1or3wSUR8h3AQl78pqS-67" value="Y2" style="ellipse;whiteSpace=wrap;html=1;aspect=fixed;" vertex="1" parent="1">
          <mxGeometry x="1085.5" y="1025" width="80" height="80" as="geometry" />
        </mxCell>
        <mxCell id="p1or3wSUR8h3AQl78pqS-69" value="待调度会议" style="text;html=1;strokeColor=none;fillColor=none;align=center;verticalAlign=middle;whiteSpace=wrap;rounded=0;" vertex="1" parent="1">
          <mxGeometry x="810" y="836" width="69" height="30" as="geometry" />
        </mxCell>
        <mxCell id="p1or3wSUR8h3AQl78pqS-70" value="可被匹配的空闲会议室" style="text;html=1;strokeColor=none;fillColor=none;align=center;verticalAlign=middle;whiteSpace=wrap;rounded=0;" vertex="1" parent="1">
          <mxGeometry x="1091" y="836" width="69" height="30" as="geometry" />
        </mxCell>
        <mxCell id="p1or3wSUR8h3AQl78pqS-71" value="Y3" style="ellipse;whiteSpace=wrap;html=1;aspect=fixed;" vertex="1" parent="1">
          <mxGeometry x="1089" y="1166" width="80" height="80" as="geometry" />
        </mxCell>
      </root>
    </mxGraphModel>
  </diagram>
</mxfile>
